<?xml version="1.0" encoding="UTF-8"?>
<!DOCTYPE svg PUBLIC "-//W3C//DTD SVG 1.1//EN" "http://www.w3.org/Graphics/SVG/1.1/DTD/svg11.dtd">
<svg xmlns="http://www.w3.org/2000/svg" version="1.1" width="1080px" height="1080px" style="shape-rendering:geometricPrecision; text-rendering:geometricPrecision; image-rendering:optimizeQuality; fill-rule:evenodd; clip-rule:evenodd" xmlns:xlink="http://www.w3.org/1999/xlink">
<g><path style="opacity:0.986" fill="#014a7d" d="M 414.5,323.5 C 512.5,323.5 610.5,323.5 708.5,323.5C 709.645,355.47 709.811,387.47 709,419.5C 652.5,481.333 596,543.167 539.5,605C 537.5,605.667 535.5,605.667 533.5,605C 514.634,600.36 495.634,596.36 476.5,593C 454.287,590.729 432.287,592.063 410.5,597C 397.263,602.285 384.263,608.118 371.5,614.5C 370.479,613.998 370.312,613.332 371,612.5C 426.833,552 482.667,491.5 538.5,431C 556.5,428 574.5,425 592.5,422C 594.5,420.333 596.5,418.667 598.5,417C 508.578,418.136 418.578,418.303 328.5,417.5C 353.644,386.521 378.978,355.688 404.5,325C 408.025,324.821 411.359,324.321 414.5,323.5 Z"/></g>
<g><path style="opacity:0.988" fill="#98d7f3" d="M 436.5,604.5 C 442.5,604.5 448.5,604.5 454.5,604.5C 453.006,609.673 451.839,615.006 451,620.5C 450.252,622.332 449.252,623.999 448,625.5C 448.306,629.597 446.806,632.763 443.5,635C 442.896,637.524 442.229,640.024 441.5,642.5C 442.609,643.965 442.109,644.965 440,645.5C 439.5,647 439,648.5 438.5,650C 439.517,652.787 439.684,655.62 439,658.5C 435.997,661.991 434.164,665.991 433.5,670.5C 424.805,670.327 416.138,670.66 407.5,671.5C 410.856,667.96 413.689,663.96 416,659.5C 417,658.833 418,658.167 419,657.5C 420.406,654.092 422.239,650.926 424.5,648C 424.434,645.891 424.101,643.725 423.5,641.5C 424.145,640.354 424.978,639.354 426,638.5C 426.272,633.962 427.438,629.795 429.5,626C 428.446,624.612 428.28,623.112 429,621.5C 431.041,619.521 432.541,617.188 433.5,614.5C 433.166,612.665 433.166,610.998 433.5,609.5C 434.376,608.749 435.376,608.249 436.5,608C 435.316,606.855 435.316,605.688 436.5,604.5 Z"/></g>
<g><path style="opacity:0.983" fill="#92d5f2" d="M 454.5,604.5 C 459.23,604.283 463.897,604.617 468.5,605.5C 467.955,608.813 467.455,612.146 467,615.5C 464.784,618.268 463.284,621.102 462.5,624C 462.833,624.333 463.167,624.667 463.5,625C 461.854,627.229 461.521,629.563 462.5,632C 461.922,633.811 461.422,635.645 461,637.5C 458.521,639.251 457.688,641.418 458.5,644C 457.718,646.74 457.218,649.574 457,652.5C 456.29,653.973 455.124,654.64 453.5,654.5C 454.211,658.325 453.045,661.325 450,663.5C 449.023,665.74 448.523,668.073 448.5,670.5C 443.5,670.5 438.5,670.5 433.5,670.5C 434.164,665.991 435.997,661.991 439,658.5C 439.684,655.62 439.517,652.787 438.5,650C 439,648.5 439.5,647 440,645.5C 442.109,644.965 442.609,643.965 441.5,642.5C 442.229,640.024 442.896,637.524 443.5,635C 446.806,632.763 448.306,629.597 448,625.5C 449.252,623.999 450.252,622.332 451,620.5C 451.839,615.006 453.006,609.673 454.5,604.5 Z"/></g>
<g><path style="opacity:0.989" fill="#9fdbf4" d="M 436.5,604.5 C 435.316,605.688 435.316,606.855 436.5,608C 435.376,608.249 434.376,608.749 433.5,609.5C 433.166,610.998 433.166,612.665 433.5,614.5C 432.541,617.188 431.041,619.521 429,621.5C 428.28,623.112 428.446,624.612 429.5,626C 427.438,629.795 426.272,633.962 426,638.5C 424.978,639.354 424.145,640.354 423.5,641.5C 424.101,643.725 424.434,645.891 424.5,648C 422.239,650.926 420.406,654.092 419,657.5C 418,658.167 417,658.833 416,659.5C 413.689,663.96 410.856,667.96 407.5,671.5C 403.731,671.244 400.064,671.577 396.5,672.5C 396.722,670.393 397.722,668.726 399.5,667.5C 399.291,666.914 398.957,666.414 398.5,666C 400.689,661.941 403.356,658.274 406.5,655C 405.5,654.667 404.5,654.333 403.5,654C 405.32,651.133 406.987,648.3 408.5,645.5C 408.028,643.693 407.694,641.86 407.5,640C 411.165,633.368 412.498,626.368 411.5,619C 413.161,618.005 414.495,616.672 415.5,615C 414.561,611.865 414.561,609.032 415.5,606.5C 422.436,605.258 429.436,604.592 436.5,604.5 Z"/></g>
<g><path style="opacity:0.977" fill="#8ad1f0" d="M 468.5,605.5 C 478.591,606.182 488.591,607.515 498.5,609.5C 494.44,613.21 493.107,617.71 494.5,623C 493.01,623.745 492.01,624.912 491.5,626.5C 492.774,631.227 492.774,635.893 491.5,640.5C 488.282,640.651 487.949,641.484 490.5,643C 483.124,649.041 481.124,656.541 484.5,665.5C 483.813,667.177 483.146,668.844 482.5,670.5C 471.059,670.378 459.726,670.378 448.5,670.5C 448.523,668.073 449.023,665.74 450,663.5C 453.045,661.325 454.211,658.325 453.5,654.5C 455.124,654.64 456.29,653.973 457,652.5C 457.218,649.574 457.718,646.74 458.5,644C 457.688,641.418 458.521,639.251 461,637.5C 461.422,635.645 461.922,633.811 462.5,632C 461.521,629.563 461.854,627.229 463.5,625C 463.167,624.667 462.833,624.333 462.5,624C 463.284,621.102 464.784,618.268 467,615.5C 467.455,612.146 467.955,608.813 468.5,605.5 Z"/></g>
<g><path style="opacity:0.982" fill="#a5ddf6" d="M 415.5,606.5 C 414.561,609.032 414.561,611.865 415.5,615C 414.495,616.672 413.161,618.005 411.5,619C 412.498,626.368 411.165,633.368 407.5,640C 407.694,641.86 408.028,643.693 408.5,645.5C 406.987,648.3 405.32,651.133 403.5,654C 404.5,654.333 405.5,654.667 406.5,655C 403.356,658.274 400.689,661.941 398.5,666C 398.957,666.414 399.291,666.914 399.5,667.5C 397.722,668.726 396.722,670.393 396.5,672.5C 390.819,672.635 385.152,672.968 379.5,673.5C 380.487,669.077 382.154,664.91 384.5,661C 383.833,660.667 383.167,660.333 382.5,660C 383.848,656.217 385.848,652.717 388.5,649.5C 386.978,647.844 387.311,646.677 389.5,646C 388.725,643.096 389.392,640.43 391.5,638C 391.043,637.586 390.709,637.086 390.5,636.5C 391.418,634.161 393.084,632.661 395.5,632C 395.543,627.978 395.543,623.645 395.5,619C 396.109,616.49 397.442,614.49 399.5,613C 398.944,612.617 398.611,612.117 398.5,611.5C 403.845,609.076 409.511,607.41 415.5,606.5 Z"/></g>
<g><path style="opacity:0.981" fill="#abdff7" d="M 398.5,611.5 C 398.611,612.117 398.944,612.617 399.5,613C 397.442,614.49 396.109,616.49 395.5,619C 395.543,623.645 395.543,627.978 395.5,632C 393.084,632.661 391.418,634.161 390.5,636.5C 390.709,637.086 391.043,637.586 391.5,638C 389.392,640.43 388.725,643.096 389.5,646C 387.311,646.677 386.978,647.844 388.5,649.5C 385.848,652.717 383.848,656.217 382.5,660C 383.167,660.333 383.833,660.667 384.5,661C 382.154,664.91 380.487,669.077 379.5,673.5C 373.5,674.5 367.5,675.5 361.5,676.5C 361.337,674.143 361.503,671.81 362,669.5C 362.809,664.077 364.976,659.243 368.5,655C 367.978,654.439 367.645,653.772 367.5,653C 369.019,650.422 369.852,647.589 370,644.5C 372.682,642.74 373.516,640.573 372.5,638C 373.498,631.909 375.165,626.076 377.5,620.5C 383.862,616.156 390.862,613.156 398.5,611.5 Z"/></g>
<g><path style="opacity:0.976" fill="#7bcbed" d="M 498.5,609.5 C 507.77,611.215 516.77,613.548 525.5,616.5C 524.65,618.585 524.316,620.585 524.5,622.5C 524.977,623.478 525.643,624.311 526.5,625C 525.137,626.945 524.303,629.112 524,631.5C 523.346,630.304 522.846,630.304 522.5,631.5C 523.615,632.598 523.615,633.765 522.5,635C 518.65,638.274 517.65,642.274 519.5,647C 516.562,650.141 514.562,653.807 513.5,658C 515.929,658.451 516.096,659.285 514,660.5C 513.667,660.167 513.333,659.833 513,659.5C 512.316,660.784 512.483,661.951 513.5,663C 511.223,666.135 509.89,669.635 509.5,673.5C 500.63,671.471 491.63,670.471 482.5,670.5C 483.146,668.844 483.813,667.177 484.5,665.5C 481.124,656.541 483.124,649.041 490.5,643C 487.949,641.484 488.282,640.651 491.5,640.5C 492.774,635.893 492.774,631.227 491.5,626.5C 492.01,624.912 493.01,623.745 494.5,623C 493.107,617.71 494.44,613.21 498.5,609.5 Z"/></g>
<g><path style="opacity:0.976" fill="#6dc4ea" d="M 525.5,616.5 C 539.669,619.889 553.669,623.889 567.5,628.5C 568.932,630.799 568.266,632.465 565.5,633.5C 566.025,634.192 566.692,634.692 567.5,635C 565.59,636.701 564.423,638.867 564,641.5C 560.903,642.289 560.736,643.456 563.5,645C 562.054,654.608 558.221,663.442 552,671.5C 552.175,673.857 552.342,676.023 552.5,678C 551.552,678.483 550.552,678.649 549.5,678.5C 549.5,679.833 549.5,681.167 549.5,682.5C 536.168,679.5 522.835,676.5 509.5,673.5C 509.89,669.635 511.223,666.135 513.5,663C 512.483,661.951 512.316,660.784 513,659.5C 513.333,659.833 513.667,660.167 514,660.5C 516.096,659.285 515.929,658.451 513.5,658C 514.562,653.807 516.562,650.141 519.5,647C 517.65,642.274 518.65,638.274 522.5,635C 523.615,633.765 523.615,632.598 522.5,631.5C 522.846,630.304 523.346,630.304 524,631.5C 524.303,629.112 525.137,626.945 526.5,625C 525.643,624.311 524.977,623.478 524.5,622.5C 524.316,620.585 524.65,618.585 525.5,616.5 Z"/></g>
<g><path style="opacity:0.964" fill="#b3e3f8" d="M 377.5,620.5 C 375.165,626.076 373.498,631.909 372.5,638C 373.516,640.573 372.682,642.74 370,644.5C 369.852,647.589 369.019,650.422 367.5,653C 367.645,653.772 367.978,654.439 368.5,655C 364.976,659.243 362.809,664.077 362,669.5C 361.503,671.81 361.337,674.143 361.5,676.5C 338.572,680.033 317.239,687.033 297.5,697.5C 318.347,665.651 345.013,639.984 377.5,620.5 Z"/></g>
<g><path style="opacity:0.979" fill="#5abbe5" d="M 567.5,628.5 C 579.579,632.971 591.579,637.637 603.5,642.5C 604.147,645.863 604.147,649.529 603.5,653.5C 600.306,660.419 597.64,667.586 595.5,675C 596.792,678.201 596.125,680.868 593.5,683C 594.869,685.239 594.369,687.073 592,688.5C 591.667,688.167 591.333,687.833 591,687.5C 590.691,688.766 590.191,689.933 589.5,691C 590.167,691.333 590.833,691.667 591.5,692C 590.058,692.377 589.058,693.21 588.5,694.5C 575.354,690.636 562.354,686.636 549.5,682.5C 549.5,681.167 549.5,679.833 549.5,678.5C 550.552,678.649 551.552,678.483 552.5,678C 552.342,676.023 552.175,673.857 552,671.5C 558.221,663.442 562.054,654.608 563.5,645C 560.736,643.456 560.903,642.289 564,641.5C 564.423,638.867 565.59,636.701 567.5,635C 566.692,634.692 566.025,634.192 565.5,633.5C 568.266,632.465 568.932,630.799 567.5,628.5 Z"/></g>
<g><path style="opacity:0.982" fill="#49b3e1" d="M 603.5,642.5 C 613.142,646.323 622.476,650.657 631.5,655.5C 631.196,656.15 630.863,656.817 630.5,657.5C 631.909,660.727 632.909,664.06 633.5,667.5C 631.857,667.52 630.524,666.853 629.5,665.5C 628.072,667.655 627.739,669.821 628.5,672C 626.199,674.003 626.199,675.837 628.5,677.5C 625.183,682.803 622.516,687.97 620.5,693C 619.838,696.326 619.838,700.159 620.5,704.5C 609.757,701.363 599.091,698.03 588.5,694.5C 589.058,693.21 590.058,692.377 591.5,692C 590.833,691.667 590.167,691.333 589.5,691C 590.191,689.933 590.691,688.766 591,687.5C 591.333,687.833 591.667,688.167 592,688.5C 594.369,687.073 594.869,685.239 593.5,683C 596.125,680.868 596.792,678.201 595.5,675C 597.64,667.586 600.306,660.419 603.5,653.5C 604.147,649.529 604.147,645.863 603.5,642.5 Z"/></g>
<g><path style="opacity:0.977" fill="#3dadde" d="M 631.5,655.5 C 641.504,660.169 651.504,664.836 661.5,669.5C 661.753,671.827 661.086,673.827 659.5,675.5C 660.167,676.5 660.833,677.5 661.5,678.5C 660.24,679.382 659.074,680.382 658,681.5C 657.667,681.167 657.333,680.833 657,680.5C 656.493,681.996 656.993,683.163 658.5,684C 655.388,684.851 655.054,686.017 657.5,687.5C 654.833,689.167 654.833,690.833 657.5,692.5C 656.976,694.453 655.976,696.12 654.5,697.5C 655.167,698.167 655.833,698.833 656.5,699.5C 654.997,699.835 653.664,699.835 652.5,699.5C 652.709,700.086 653.043,700.586 653.5,701C 650.805,702.416 650.139,704.416 651.5,707C 650.692,707.308 650.025,707.808 649.5,708.5C 650.246,709.736 650.579,711.07 650.5,712.5C 648.901,712.232 647.568,712.566 646.5,713.5C 637.679,710.893 629.012,707.893 620.5,704.5C 619.838,700.159 619.838,696.326 620.5,693C 622.516,687.97 625.183,682.803 628.5,677.5C 626.199,675.837 626.199,674.003 628.5,672C 627.739,669.821 628.072,667.655 629.5,665.5C 630.524,666.853 631.857,667.52 633.5,667.5C 632.909,664.06 631.909,660.727 630.5,657.5C 630.863,656.817 631.196,656.15 631.5,655.5 Z"/></g>
<g><path style="opacity:0.982" fill="#30a7da" d="M 661.5,669.5 C 676.899,677.199 692.232,684.866 707.5,692.5C 707.047,693.458 706.381,694.292 705.5,695C 707.032,695.7 708.032,696.866 708.5,698.5C 707.471,698.296 706.471,698.796 705.5,700C 707.077,702.564 708.077,705.397 708.5,708.5C 707.833,708.833 707.167,709.167 706.5,709.5C 706.709,710.086 707.043,710.586 707.5,711C 706.207,711.49 704.873,711.657 703.5,711.5C 703.649,712.552 703.483,713.552 703,714.5C 702.107,713.289 701.274,713.289 700.5,714.5C 701.025,715.192 701.692,715.692 702.5,716C 701.167,716.333 699.833,716.667 698.5,717C 698.94,719.162 699.273,721.329 699.5,723.5C 698.833,724.5 698.167,725.5 697.5,726.5C 698.025,727.192 698.692,727.692 699.5,728C 697.808,729.401 697.141,731.234 697.5,733.5C 680.429,726.814 663.429,720.147 646.5,713.5C 647.568,712.566 648.901,712.232 650.5,712.5C 650.579,711.07 650.246,709.736 649.5,708.5C 650.025,707.808 650.692,707.308 651.5,707C 650.139,704.416 650.805,702.416 653.5,701C 653.043,700.586 652.709,700.086 652.5,699.5C 653.664,699.835 654.997,699.835 656.5,699.5C 655.833,698.833 655.167,698.167 654.5,697.5C 655.976,696.12 656.976,694.453 657.5,692.5C 654.833,690.833 654.833,689.167 657.5,687.5C 655.054,686.017 655.388,684.851 658.5,684C 656.993,683.163 656.493,681.996 657,680.5C 657.333,680.833 657.667,681.167 658,681.5C 659.074,680.382 660.24,679.382 661.5,678.5C 660.833,677.5 660.167,676.5 659.5,675.5C 661.086,673.827 661.753,671.827 661.5,669.5 Z"/></g>
<g><path style="opacity:0.969" fill="#229fd6" d="M 707.5,692.5 C 721.504,698.836 735.504,705.169 749.5,711.5C 747.988,713.274 747.655,715.107 748.5,717C 747.387,718.394 746.053,719.561 744.5,720.5C 746.131,723.669 747.465,727.002 748.5,730.5C 746.973,732.193 745.64,734.027 744.5,736C 745.833,737.667 745.833,739.333 744.5,741C 745.167,741.333 745.833,741.667 746.5,742C 743.123,743.649 742.79,745.649 745.5,748C 744.748,748.671 744.414,749.504 744.5,750.5C 728.757,745.03 713.09,739.364 697.5,733.5C 697.141,731.234 697.808,729.401 699.5,728C 698.692,727.692 698.025,727.192 697.5,726.5C 698.167,725.5 698.833,724.5 699.5,723.5C 699.273,721.329 698.94,719.162 698.5,717C 699.833,716.667 701.167,716.333 702.5,716C 701.692,715.692 701.025,715.192 700.5,714.5C 701.274,713.289 702.107,713.289 703,714.5C 703.483,713.552 703.649,712.552 703.5,711.5C 704.873,711.657 706.207,711.49 707.5,711C 707.043,710.586 706.709,710.086 706.5,709.5C 707.167,709.167 707.833,708.833 708.5,708.5C 708.077,705.397 707.077,702.564 705.5,700C 706.471,698.796 707.471,698.296 708.5,698.5C 708.032,696.866 707.032,695.7 705.5,695C 706.381,694.292 707.047,693.458 707.5,692.5 Z"/></g>
<g><path style="opacity:0.971" fill="#1698d1" d="M 749.5,711.5 C 774.55,724.188 800.883,733.188 828.5,738.5C 830.19,743.599 829.523,744.266 826.5,740.5C 826.167,740.833 825.833,741.167 825.5,741.5C 826.246,742.736 826.579,744.07 826.5,745.5C 823.795,745.38 823.128,746.38 824.5,748.5C 817.868,752.699 818.368,753.366 826,750.5C 826.27,751.932 825.604,752.932 824,753.5C 824.225,756.825 822.892,759.158 820,760.5C 819.257,758.355 818.424,758.189 817.5,760C 817.82,761.653 818.82,762.653 820.5,763C 818.244,764.499 818.244,766.166 820.5,768C 820.08,771.535 818.913,772.035 817,769.5C 814.216,771.068 814.049,773.068 816.5,775.5C 792.015,768.339 768.015,760.006 744.5,750.5C 744.414,749.504 744.748,748.671 745.5,748C 742.79,745.649 743.123,743.649 746.5,742C 745.833,741.667 745.167,741.333 744.5,741C 745.833,739.333 745.833,737.667 744.5,736C 745.64,734.027 746.973,732.193 748.5,730.5C 747.465,727.002 746.131,723.669 744.5,720.5C 746.053,719.561 747.387,718.394 748.5,717C 747.655,715.107 747.988,713.274 749.5,711.5 Z"/></g>
<g><path style="opacity:0.97" fill="#0f92ca" d="M 816.5,775.5 C 814.049,773.068 814.216,771.068 817,769.5C 818.913,772.035 820.08,771.535 820.5,768C 818.244,766.166 818.244,764.499 820.5,763C 818.82,762.653 817.82,761.653 817.5,760C 818.424,758.189 819.257,758.355 820,760.5C 822.892,759.158 824.225,756.825 824,753.5C 825.604,752.932 826.27,751.932 826,750.5C 818.368,753.366 817.868,752.699 824.5,748.5C 823.128,746.38 823.795,745.38 826.5,745.5C 826.579,744.07 826.246,742.736 825.5,741.5C 825.833,741.167 826.167,740.833 826.5,740.5C 829.523,744.266 830.19,743.599 828.5,738.5C 852.603,743.6 876.936,745.267 901.5,743.5C 916.877,741.974 930.877,736.808 943.5,728C 958.155,718.686 971.655,707.852 984,695.5C 981.836,703.847 978.503,711.847 974,719.5C 966.757,732.817 957.924,744.984 947.5,756C 926.167,769.556 902.834,777.556 877.5,780C 864.833,780.667 852.167,780.667 839.5,780C 831.574,779.127 823.907,777.627 816.5,775.5 Z"/></g>
<g><path style="opacity:0.482" fill="#01060c" d="M 406.5,682.5 C 457.13,680.07 507.13,684.57 556.5,696C 600.067,705.523 642.401,718.856 683.5,736C 686.215,736.875 687.548,738.708 687.5,741.5C 684.482,741.665 681.482,741.498 678.5,741C 633.617,730.853 588.283,723.519 542.5,719C 439.625,705.145 342.292,722.145 250.5,770C 232.569,779.878 215.069,790.378 198,801.5C 197.5,801.167 197,800.833 196.5,800.5C 236.429,736.144 294.095,698.311 369.5,687C 381.961,685.302 394.294,683.802 406.5,682.5 Z"/></g>
<g><path style="opacity:1" fill="#014a7b" d="M 417.5,683.5 C 487.285,682.631 555.285,693.131 621.5,715C 634.5,719.333 647.5,723.667 660.5,728C 669.54,731.234 678.207,735.234 686.5,740C 682.473,740.331 678.473,739.998 674.5,739C 627.683,728.197 580.35,720.864 532.5,717C 411.397,702.777 300.73,729.944 200.5,798.5C 228.635,751.924 268.635,719.091 320.5,700C 352.217,690.159 384.55,684.659 417.5,683.5 Z"/></g>
</svg>
