<?xml version="1.0" encoding="UTF-8"?>
<!DOCTYPE svg PUBLIC "-//W3C//DTD SVG 1.1//EN" "http://www.w3.org/Graphics/SVG/1.1/DTD/svg11.dtd">
<svg xmlns="http://www.w3.org/2000/svg" version="1.1" width="3923px" height="1664px" style="shape-rendering:geometricPrecision; text-rendering:geometricPrecision; image-rendering:optimizeQuality; fill-rule:evenodd; clip-rule:evenodd" xmlns:xlink="http://www.w3.org/1999/xlink">
<g><path style="opacity:0.98" fill="#4f54dc" d="M 1081.5,1.5 C 1085.01,18.5333 1088.67,35.5333 1092.5,52.5C 1056.73,33.8905 1018.73,23.3905 978.5,21C 975.607,16.9752 974.774,12.4752 976,7.5C 977.167,5 979,3.16667 981.5,2C 1014.83,1.50002 1048.17,1.33335 1081.5,1.5 Z"/></g>
<g><path style="opacity:0.995" fill="#4e5ade" d="M 1081.5,1.5 C 1100.5,1.5 1119.5,1.5 1138.5,1.5C 1147.14,37.7117 1154.97,74.0451 1162,110.5C 1161.33,109.748 1160.5,109.414 1159.5,109.5C 1141.11,85.7715 1118.78,66.7715 1092.5,52.5C 1088.67,35.5333 1085.01,18.5333 1081.5,1.5 Z"/></g>
<g><path style="opacity:0.999" fill="#4d5edf" d="M 1138.5,1.5 C 1146.5,1.5 1154.5,1.5 1162.5,1.5C 1232.5,312.833 1302.5,624.167 1372.5,935.5C 1362.64,930.62 1353.3,924.953 1344.5,918.5C 1295.73,700.833 1246.9,483.167 1198,265.5C 1197.5,350.833 1197.33,436.166 1197.5,521.5C 1197.83,564.003 1197.5,606.337 1196.5,648.5C 1196.67,502.166 1196.5,355.833 1196,209.5C 1195.42,202.5 1194.92,195.5 1194.5,188.5C 1194.66,186.473 1194.5,184.473 1194,182.5C 1193.62,181.944 1193.12,181.611 1192.5,181.5C 1192.5,180.5 1192.5,179.5 1192.5,178.5C 1192.83,175.772 1192.16,173.438 1190.5,171.5C 1183.86,148.891 1173.53,128.225 1159.5,109.5C 1160.5,109.414 1161.33,109.748 1162,110.5C 1154.97,74.0451 1147.14,37.7117 1138.5,1.5 Z"/></g>
<g><path style="opacity:0.999" fill="#4d61e1" d="M 1162.5,1.5 C 1173.83,1.5 1185.17,1.5 1196.5,1.5C 1267.5,318.829 1338.5,636.163 1409.5,953.5C 1396.73,948.283 1384.4,942.283 1372.5,935.5C 1302.5,624.167 1232.5,312.833 1162.5,1.5 Z"/></g>
<g><path style="opacity:0.999" fill="#4c67e3" d="M 1196.5,1.5 C 1218.5,1.5 1240.5,1.5 1262.5,1.5C 1335.75,325.421 1408.75,649.421 1481.5,973.5C 1456.88,969.073 1432.88,962.406 1409.5,953.5C 1338.5,636.163 1267.5,318.829 1196.5,1.5 Z"/></g>
<g><path style="opacity:1" fill="#4b6de5" d="M 1262.5,1.5 C 1281.83,1.5 1301.17,1.5 1320.5,1.5C 1392.76,323.12 1464.76,644.787 1536.5,966.5C 1530.43,969.208 1524.43,971.875 1518.5,974.5C 1506.28,975.813 1493.94,975.479 1481.5,973.5C 1408.75,649.421 1335.75,325.421 1262.5,1.5 Z"/></g>
<g><path style="opacity:1" fill="#4a71e6" d="M 1320.5,1.5 C 1327.5,1.5 1334.5,1.5 1341.5,1.5C 1413.47,319.342 1484.8,637.342 1555.5,955.5C 1549.3,959.433 1542.96,963.1 1536.5,966.5C 1464.76,644.787 1392.76,323.12 1320.5,1.5 Z"/></g>
<g><path style="opacity:1" fill="#4a73e7" d="M 1341.5,1.5 C 1345.5,1.5 1349.5,1.5 1353.5,1.5C 1424.88,317.056 1495.88,632.723 1566.5,948.5C 1563,951.083 1559.34,953.416 1555.5,955.5C 1484.8,637.342 1413.47,319.342 1341.5,1.5 Z"/></g>
<g><path style="opacity:1" fill="#4975e8" d="M 1353.5,1.5 C 1361.5,1.5 1369.5,1.5 1377.5,1.5C 1447.21,311.678 1517.21,621.678 1587.5,931.5C 1581.09,937.875 1574.09,943.542 1566.5,948.5C 1495.88,632.723 1424.88,317.056 1353.5,1.5 Z"/></g>
<g><path style="opacity:1" fill="#4979ea" d="M 1377.5,1.5 C 1396.83,1.5 1416.17,1.5 1435.5,1.5C 1500.57,293.752 1566.23,585.752 1632.5,877.5C 1620.42,897.911 1605.42,915.911 1587.5,931.5C 1517.21,621.678 1447.21,311.678 1377.5,1.5 Z"/></g>
<g><path style="opacity:1" fill="#487fec" d="M 1435.5,1.5 C 1454.5,1.5 1473.5,1.5 1492.5,1.5C 1550.93,262 1609.6,522.334 1668.5,782.5C 1661.63,816.113 1649.63,847.78 1632.5,877.5C 1566.23,585.752 1500.57,293.752 1435.5,1.5 Z"/></g>
<g><path style="opacity:1" fill="#4782ed" d="M 1492.5,1.5 C 1495.83,1.5 1499.17,1.5 1502.5,1.5C 1558.9,255.085 1615.9,508.419 1673.5,761.5C 1672.71,768.815 1671.04,775.815 1668.5,782.5C 1609.6,522.334 1550.93,262 1492.5,1.5 Z"/></g>
<g><path style="opacity:1" fill="#4786ee" d="M 1502.5,1.5 C 1521.5,1.5 1540.5,1.5 1559.5,1.5C 1601.72,190.718 1644.39,379.718 1687.5,568.5C 1688.1,626.756 1684.6,684.756 1677,742.5C 1675.97,748.881 1674.8,755.214 1673.5,761.5C 1615.9,508.419 1558.9,255.085 1502.5,1.5 Z"/></g>
<g><path style="opacity:1" fill="#468cf0" d="M 1559.5,1.5 C 1578.5,1.5 1597.5,1.5 1616.5,1.5C 1639.93,105.646 1663.59,209.646 1687.5,313.5C 1686.45,398.495 1686.45,483.495 1687.5,568.5C 1644.39,379.718 1601.72,190.718 1559.5,1.5 Z"/></g>
<g><path style="opacity:1" fill="#4590f2" d="M 1616.5,1.5 C 1626.17,1.5 1635.83,1.5 1645.5,1.5C 1663.21,81.012 1681.21,160.345 1699.5,239.5C 1694.35,264.093 1690.35,288.76 1687.5,313.5C 1663.59,209.646 1639.93,105.646 1616.5,1.5 Z"/></g>
<g><path style="opacity:0.998" fill="#4493f3" d="M 1645.5,1.5 C 1682.53,1.05903 1719.53,1.55903 1756.5,3C 1784.39,6.79647 1810.72,15.2965 1835.5,28.5C 1835.82,30.0481 1836.82,30.7148 1838.5,30.5C 1839.83,31.1667 1841.17,31.8333 1842.5,32.5C 1842.82,34.0481 1843.82,34.7148 1845.5,34.5C 1852.39,38.1049 1858.72,42.4382 1864.5,47.5C 1845.18,52.3262 1827.18,60.1596 1810.5,71C 1770.53,98.3079 1740.7,134.141 1721,178.5C 1712.11,198.35 1704.94,218.683 1699.5,239.5C 1681.21,160.345 1663.21,81.012 1645.5,1.5 Z"/></g>
<g><path style="opacity:0.999" fill="#3a99e1" d="M 2231.5,1.5 C 2317.3,255.563 2403.3,509.563 2489.5,763.5C 2477.81,805.563 2457.81,842.896 2429.5,875.5C 2330.46,586.052 2231.79,296.385 2133.5,6.5C 2145.06,4.3083 2156.72,2.8083 2168.5,2C 2189.5,1.50004 2210.5,1.33338 2231.5,1.5 Z"/></g>
<g><path style="opacity:0.998" fill="#3c9fe3" d="M 2231.5,1.5 C 2258.17,1.5 2284.83,1.5 2311.5,1.5C 2374.93,189.798 2438.93,377.798 2503.5,565.5C 2503.87,608.847 2503.37,652.18 2502,695.5C 2500.29,718.75 2496.13,741.417 2489.5,763.5C 2403.3,509.563 2317.3,255.563 2231.5,1.5 Z"/></g>
<g><path style="opacity:0.996" fill="#3ea3e5" d="M 2311.5,1.5 C 2323.83,1.5 2336.17,1.5 2348.5,1.5C 2399.41,153.239 2451.08,304.572 2503.5,455.5C 2503.5,492.167 2503.5,528.833 2503.5,565.5C 2438.93,377.798 2374.93,189.798 2311.5,1.5 Z"/></g>
<g><path style="opacity:0.996" fill="#3fa6e6" d="M 2348.5,1.5 C 2364.83,1.5 2381.17,1.5 2397.5,1.5C 2434.03,108.421 2470.36,215.421 2506.5,322.5C 2505.7,332.164 2504.87,341.83 2504,351.5C 2503.5,386.165 2503.33,420.832 2503.5,455.5C 2451.08,304.572 2399.41,153.239 2348.5,1.5 Z"/></g>
<g><path style="opacity:0.997" fill="#40a9e7" d="M 2397.5,1.5 C 2410.17,1.5 2422.83,1.5 2435.5,1.5C 2463.59,86.452 2492.26,171.119 2521.5,255.5C 2515.08,277.635 2510.08,299.968 2506.5,322.5C 2470.36,215.421 2434.03,108.421 2397.5,1.5 Z"/></g>
<g><path style="opacity:0.997" fill="#41ace8" d="M 2435.5,1.5 C 2449.83,1.5 2464.17,1.5 2478.5,1.5C 2499.93,66.4642 2521.93,131.131 2544.5,195.5C 2535.65,215.042 2527.99,235.042 2521.5,255.5C 2492.26,171.119 2463.59,86.452 2435.5,1.5 Z"/></g>
<g><path style="opacity:0.996" fill="#42b1e9" d="M 2478.5,1.5 C 2511.5,1.5 2544.5,1.5 2577.5,1.5C 2587.77,33.308 2598.44,64.9747 2609.5,96.5C 2583.51,126.524 2561.84,159.524 2544.5,195.5C 2521.93,131.131 2499.93,66.4642 2478.5,1.5 Z"/></g>
<g><path style="opacity:0.994" fill="#44b6eb" d="M 2577.5,1.5 C 2589.83,1.5 2602.17,1.5 2614.5,1.5C 2621.6,24.1318 2629.27,46.4651 2637.5,68.5C 2627.83,77.5 2618.5,86.8333 2609.5,96.5C 2598.44,64.9747 2587.77,33.308 2577.5,1.5 Z"/></g>
<g><path style="opacity:0.99" fill="#45b9ec" d="M 2614.5,1.5 C 2630.83,1.5 2647.17,1.5 2663.5,1.5C 2667.7,13.4331 2671.7,25.4331 2675.5,37.5C 2662.25,47.0765 2649.59,57.4098 2637.5,68.5C 2629.27,46.4651 2621.6,24.1318 2614.5,1.5 Z"/></g>
<g><path style="opacity:0.98" fill="#46bded" d="M 2663.5,1.5 C 2686.84,1.33337 2710.17,1.50003 2733.5,2C 2713.23,12.4715 2693.89,24.3048 2675.5,37.5C 2671.7,25.4331 2667.7,13.4331 2663.5,1.5 Z"/></g>
<g><path style="opacity:0.977" fill="#48c2ef" d="M 2670.5,327.5 C 2640.79,290.454 2611.45,253.12 2582.5,215.5C 2609.29,149.082 2651.96,95.2486 2710.5,54C 2763.14,19.003 2821.14,1.66969 2884.5,2C 2892.92,7.87336 2893.59,14.54 2886.5,22C 2819.99,24.6862 2763.49,49.5195 2717,96.5C 2692.92,123.33 2677.92,154.663 2672,190.5C 2670.54,236.14 2670.04,281.807 2670.5,327.5 Z"/></g>
<g><path style="opacity:0.999" fill="#3993e0" d="M 2133.5,6.5 C 2231.79,296.385 2330.46,586.052 2429.5,875.5C 2419.59,887.289 2408.59,897.956 2396.5,907.5C 2295.5,610.172 2194.5,312.838 2093.5,15.5C 2106.61,11.5553 2119.95,8.55531 2133.5,6.5 Z"/></g>
<g><path style="opacity:0.999" fill="#3890df" d="M 2093.5,15.5 C 2194.5,312.838 2295.5,610.172 2396.5,907.5C 2385.4,916.557 2373.73,924.891 2361.5,932.5C 2259.36,631.421 2157.03,330.421 2054.5,29.5C 2067.21,24.042 2080.21,19.3754 2093.5,15.5 Z"/></g>
<g><path style="opacity:0.937" fill="#3667be" d="M 1835.5,28.5 C 1836.71,28.9321 1837.71,29.5987 1838.5,30.5C 1836.82,30.7148 1835.82,30.0481 1835.5,28.5 Z"/></g>
<g><path style="opacity:0.999" fill="#368cdd" d="M 2054.5,29.5 C 2157.03,330.421 2259.36,631.421 2361.5,932.5C 2339.43,945.415 2316.09,955.415 2291.5,962.5C 2190.17,664.172 2088.83,365.838 1987.5,67.5C 2008.29,52.4356 2030.62,39.769 2054.5,29.5 Z"/></g>
<g><path style="opacity:1" fill="#3566be" d="M 1842.5,32.5 C 1843.71,32.9321 1844.71,33.5987 1845.5,34.5C 1843.82,34.7148 1842.82,34.0481 1842.5,32.5 Z"/></g>
<g><path style="opacity:0.994" fill="#284191" d="M 1864.5,47.5 C 1878.1,56.6025 1889.6,67.9358 1899,81.5C 1901.63,85.9354 1904.13,90.4354 1906.5,95C 1846.02,147.767 1810.52,214.267 1800,294.5C 1799.67,423.167 1799.33,551.833 1799,680.5C 1789.85,792.863 1737.35,878.03 1641.5,936C 1603.26,957.58 1562.26,970.413 1518.5,974.5C 1524.43,971.875 1530.43,969.208 1536.5,966.5C 1542.96,963.1 1549.3,959.433 1555.5,955.5C 1559.34,953.416 1563,951.083 1566.5,948.5C 1574.09,943.542 1581.09,937.875 1587.5,931.5C 1605.42,915.911 1620.42,897.911 1632.5,877.5C 1649.63,847.78 1661.63,816.113 1668.5,782.5C 1671.04,775.815 1672.71,768.815 1673.5,761.5C 1674.8,755.214 1675.97,748.881 1677,742.5C 1684.6,684.756 1688.1,626.756 1687.5,568.5C 1686.45,483.495 1686.45,398.495 1687.5,313.5C 1690.35,288.76 1694.35,264.093 1699.5,239.5C 1704.94,218.683 1712.11,198.35 1721,178.5C 1740.7,134.141 1770.53,98.3079 1810.5,71C 1827.18,60.1596 1845.18,52.3262 1864.5,47.5 Z"/></g>
<g><path style="opacity:0.999" fill="#3486db" d="M 1987.5,67.5 C 2088.83,365.838 2190.17,664.172 2291.5,962.5C 2264.46,970.617 2236.8,974.95 2208.5,975.5C 2113.43,692.951 2017.76,410.617 1921.5,128.5C 1930.22,117.27 1939.89,106.77 1950.5,97C 1962.42,86.5728 1974.75,76.7394 1987.5,67.5 Z"/></g>
<g><path style="opacity:0.999" fill="#3483db" d="M 1921.5,128.5 C 2017.76,410.617 2113.43,692.951 2208.5,975.5C 2204.53,976.162 2200.53,976.495 2196.5,976.5C 2102.6,697.14 2007.94,418.14 1912.5,139.5C 1915.15,135.518 1918.15,131.851 1921.5,128.5 Z"/></g>
<g><path style="opacity:0.998" fill="#327fd9" d="M 1912.5,139.5 C 2007.94,418.14 2102.6,697.14 2196.5,976.5C 2167.83,976.5 2139.17,976.5 2110.5,976.5C 2027.07,729.536 1943.07,482.869 1858.5,236.5C 1871.56,201.184 1889.56,168.85 1912.5,139.5 Z"/></g>
<g><path style="opacity:0.812" fill="#3e52bf" d="M 1190.5,171.5 C 1192.16,173.438 1192.83,175.772 1192.5,178.5C 1191.39,176.401 1190.72,174.067 1190.5,171.5 Z"/></g>
<g><path style="opacity:0.625" fill="#3c51bb" d="M 1192.5,181.5 C 1193.12,181.611 1193.62,181.944 1194,182.5C 1194.5,184.473 1194.66,186.473 1194.5,188.5C 1193.59,186.343 1192.93,184.01 1192.5,181.5 Z"/></g>
<g><path style="opacity:0.989" fill="#47bfee" d="M 2582.5,215.5 C 2611.45,253.12 2640.79,290.454 2670.5,327.5C 2670.5,348.833 2670.5,370.167 2670.5,391.5C 2667.24,389.031 2664.4,386.031 2662,382.5C 2629.97,340.981 2597.8,299.647 2565.5,258.5C 2570.37,243.767 2576.04,229.434 2582.5,215.5 Z"/></g>
<g><path style="opacity:0.998" fill="#3079d7" d="M 1858.5,236.5 C 1943.07,482.869 2027.07,729.536 2110.5,976.5C 2083.5,976.5 2056.5,976.5 2029.5,976.5C 1966.28,787.824 1902.28,599.49 1837.5,411.5C 1837.33,385.498 1837.5,359.498 1838,333.5C 1840.3,300.168 1847.13,267.835 1858.5,236.5 Z"/></g>
<g><path style="opacity:0.99" fill="#46bced" d="M 2565.5,258.5 C 2597.8,299.647 2629.97,340.981 2662,382.5C 2664.4,386.031 2667.24,389.031 2670.5,391.5C 2670.5,410.167 2670.5,428.833 2670.5,447.5C 2631.45,398.453 2592.79,349.12 2554.5,299.5C 2557.7,285.703 2561.37,272.037 2565.5,258.5 Z"/></g>
<g><path style="opacity:0.998" fill="#4e5ade" d="M 1344.5,918.5 C 1316.04,899.708 1291.37,876.708 1270.5,849.5C 1271.12,849.083 1271.46,848.416 1271.5,847.5C 1247.11,738.636 1222.45,629.97 1197.5,521.5C 1197.33,436.166 1197.5,350.833 1198,265.5C 1246.9,483.167 1295.73,700.833 1344.5,918.5 Z"/></g>
<g><path style="opacity:0.991" fill="#45b9ec" d="M 2554.5,299.5 C 2592.79,349.12 2631.45,398.453 2670.5,447.5C 2670.5,471.833 2670.5,496.167 2670.5,520.5C 2667.24,518.031 2664.4,515.031 2662,511.5C 2622.72,460.583 2583.22,409.917 2543.5,359.5C 2545.89,339.236 2549.55,319.236 2554.5,299.5 Z"/></g>
<g><path style="opacity:0.992" fill="#44b6eb" d="M 2543.5,359.5 C 2583.22,409.917 2622.72,460.583 2662,511.5C 2664.4,515.031 2667.24,518.031 2670.5,520.5C 2670.5,539.167 2670.5,557.833 2670.5,576.5C 2626.27,520.387 2582.27,464.053 2538.5,407.5C 2539.12,391.346 2540.78,375.346 2543.5,359.5 Z"/></g>
<g><path style="opacity:0.991" fill="#42b1e9" d="M 2538.5,407.5 C 2582.27,464.053 2626.27,520.387 2670.5,576.5C 2670.84,606.85 2670.34,637.183 2669,667.5C 2667.78,682.85 2665.28,697.85 2661.5,712.5C 2620.48,660.972 2579.98,608.972 2540,556.5C 2538.63,554.959 2537.13,553.625 2535.5,552.5C 2535.33,518.498 2535.5,484.498 2536,450.5C 2536.23,435.976 2537.07,421.642 2538.5,407.5 Z"/></g>
<g><path style="opacity:0.996" fill="#2e73d5" d="M 1837.5,411.5 C 1902.28,599.49 1966.28,787.824 2029.5,976.5C 2000.83,976.5 1972.17,976.5 1943.5,976.5C 1909.2,874.61 1874.54,772.943 1839.5,671.5C 1838.45,584.838 1837.78,498.172 1837.5,411.5 Z"/></g>
<g><path style="opacity:0.999" fill="#4f55dc" d="M 1197.5,521.5 C 1222.45,629.97 1247.11,738.636 1271.5,847.5C 1271.46,848.416 1271.12,849.083 1270.5,849.5C 1223.76,790.976 1199.09,723.976 1196.5,648.5C 1197.5,606.337 1197.83,564.003 1197.5,521.5 Z"/></g>
<g><path style="opacity:0.991" fill="#41ace8" d="M 2535.5,552.5 C 2537.13,553.625 2538.63,554.959 2540,556.5C 2579.98,608.972 2620.48,660.972 2661.5,712.5C 2658.52,728.765 2653.85,744.431 2647.5,759.5C 2610.4,711.613 2573.06,663.946 2535.5,616.5C 2535.5,595.167 2535.5,573.833 2535.5,552.5 Z"/></g>
<g><path style="opacity:0.989" fill="#40aae7" d="M 2535.5,616.5 C 2573.06,663.946 2610.4,711.613 2647.5,759.5C 2643.49,771.852 2638.15,783.519 2631.5,794.5C 2599.95,753.362 2567.95,712.695 2535.5,672.5C 2535.5,653.833 2535.5,635.167 2535.5,616.5 Z"/></g>
<g><path style="opacity:0.998" fill="#2e6fd5" d="M 1839.5,671.5 C 1874.54,772.943 1909.2,874.61 1943.5,976.5C 1941.5,976.5 1939.5,976.5 1937.5,976.5C 1905.21,880.615 1872.54,784.948 1839.5,689.5C 1839.5,683.5 1839.5,677.5 1839.5,671.5 Z"/></g>
<g><path style="opacity:0.99" fill="#3fa6e6" d="M 2535.5,672.5 C 2567.95,712.695 2599.95,753.362 2631.5,794.5C 2624.92,809.342 2616.59,823.009 2606.5,835.5C 2582.21,803.879 2557.55,772.546 2532.5,741.5C 2535.14,718.59 2536.14,695.59 2535.5,672.5 Z"/></g>
<g><path style="opacity:0.993" fill="#2c6dd3" d="M 1839.5,689.5 C 1872.54,784.948 1905.21,880.615 1937.5,976.5C 1912.5,976.5 1887.5,976.5 1862.5,976.5C 1844.37,921.455 1826.04,866.455 1807.5,811.5C 1826.01,772.784 1836.68,732.117 1839.5,689.5 Z"/></g>
<g><path style="opacity:0.99" fill="#3ea3e5" d="M 2532.5,741.5 C 2557.55,772.546 2582.21,803.879 2606.5,835.5C 2600.13,845.568 2592.8,854.901 2584.5,863.5C 2564.9,836.903 2544.57,810.903 2523.5,785.5C 2527.13,770.97 2530.13,756.304 2532.5,741.5 Z"/></g>
<g><path style="opacity:0.987" fill="#3c9fe3" d="M 2523.5,785.5 C 2544.57,810.903 2564.9,836.903 2584.5,863.5C 2568.37,881.965 2550.37,898.298 2530.5,912.5C 2516.5,894.833 2502.5,877.167 2488.5,859.5C 2503.41,836.344 2515.08,811.677 2523.5,785.5 Z"/></g>
<g><path style="opacity:0.991" fill="#2c69d3" d="M 1807.5,811.5 C 1826.04,866.455 1844.37,921.455 1862.5,976.5C 1858.5,976.5 1854.5,976.5 1850.5,976.5C 1833.87,926.289 1816.87,876.289 1799.5,826.5C 1801.92,821.333 1804.58,816.333 1807.5,811.5 Z"/></g>
<g><path style="opacity:0.992" fill="#2a66d1" d="M 1799.5,826.5 C 1816.87,876.289 1833.87,926.289 1850.5,976.5C 1821.51,975.587 1792.51,975.253 1763.5,975.5C 1755.87,951.622 1747.87,927.956 1739.5,904.5C 1762.9,880.986 1782.9,854.986 1799.5,826.5 Z"/></g>
<g><path style="opacity:0.979" fill="#3a99e1" d="M 2488.5,859.5 C 2502.5,877.167 2516.5,894.833 2530.5,912.5C 2505.59,931.292 2478.26,945.959 2448.5,956.5C 2441.59,945.925 2433.93,935.925 2425.5,926.5C 2449.66,907.014 2470.66,884.681 2488.5,859.5 Z"/></g>
<g><path style="opacity:0.98" fill="#2861cf" d="M 1739.5,904.5 C 1747.87,927.956 1755.87,951.622 1763.5,975.5C 1734.51,974.816 1705.51,974.483 1676.5,974.5C 1674.9,968.029 1672.9,961.696 1670.5,955.5C 1695.45,941.232 1718.45,924.232 1739.5,904.5 Z"/></g>
<g><path style="opacity:0.969" fill="#3994e0" d="M 2425.5,926.5 C 2433.93,935.925 2441.59,945.925 2448.5,956.5C 2435.48,961.506 2422.15,965.506 2408.5,968.5C 2403.5,961.833 2398.5,955.167 2393.5,948.5C 2404.13,941.179 2414.8,933.846 2425.5,926.5 Z"/></g>
<g><path style="opacity:0.945" fill="#3790de" d="M 2393.5,948.5 C 2398.5,955.167 2403.5,961.833 2408.5,968.5C 2382.88,974.736 2356.88,977.569 2330.5,977C 2352.23,969.133 2373.23,959.633 2393.5,948.5 Z"/></g>
<g><path style="opacity:0.88" fill="#275bce" d="M 1670.5,955.5 C 1672.9,961.696 1674.9,968.029 1676.5,974.5C 1657.8,974.854 1639.14,974.354 1620.5,973C 1637.93,969.245 1654.6,963.412 1670.5,955.5 Z"/></g>
<g><path style="opacity:0.994" fill="#3891df" d="M 434.5,1218.5 C 508.833,1218.5 583.167,1218.5 657.5,1218.5C 657.5,1237.5 657.5,1256.5 657.5,1275.5C 604.833,1275.5 552.167,1275.5 499.5,1275.5C 499.5,1298.17 499.5,1320.83 499.5,1343.5C 546.167,1343.5 592.833,1343.5 639.5,1343.5C 639.5,1363.5 639.5,1383.5 639.5,1403.5C 592.833,1403.5 546.167,1403.5 499.5,1403.5C 499.5,1425.17 499.5,1446.83 499.5,1468.5C 557.167,1468.5 614.833,1468.5 672.5,1468.5C 672.5,1487.5 672.5,1506.5 672.5,1525.5C 593.167,1525.5 513.833,1525.5 434.5,1525.5C 434.5,1423.17 434.5,1320.83 434.5,1218.5 Z"/></g>
<g><path style="opacity:0.994" fill="#3891df" d="M 733.5,1218.5 C 807.833,1218.5 882.167,1218.5 956.5,1218.5C 956.5,1237.5 956.5,1256.5 956.5,1275.5C 903.833,1275.5 851.167,1275.5 798.5,1275.5C 798.5,1298.17 798.5,1320.83 798.5,1343.5C 845.167,1343.5 891.833,1343.5 938.5,1343.5C 938.5,1363.5 938.5,1383.5 938.5,1403.5C 891.833,1403.5 845.167,1403.5 798.5,1403.5C 798.5,1425.17 798.5,1446.83 798.5,1468.5C 856.167,1468.5 913.833,1468.5 971.5,1468.5C 971.5,1487.5 971.5,1506.5 971.5,1525.5C 892.167,1525.5 812.833,1525.5 733.5,1525.5C 733.5,1423.17 733.5,1320.83 733.5,1218.5 Z"/></g>
<g><path style="opacity:0.997" fill="#3891df" d="M 1551.5,1218.5 C 1573.5,1218.5 1595.5,1218.5 1617.5,1218.5C 1617.5,1301.17 1617.5,1383.83 1617.5,1466.5C 1669.83,1466.5 1722.17,1466.5 1774.5,1466.5C 1774.5,1485.5 1774.5,1504.5 1774.5,1523.5C 1700.17,1523.5 1625.83,1523.5 1551.5,1523.5C 1551.5,1421.83 1551.5,1320.17 1551.5,1218.5 Z"/></g>
<g><path style="opacity:0.993" fill="#3891df" d="M 2532.5,1218.5 C 2558.84,1218.17 2585.18,1218.5 2611.5,1219.5C 2656.53,1282.03 2701.36,1344.69 2746,1407.5C 2746.5,1344.5 2746.67,1281.5 2746.5,1218.5C 2765.5,1218.5 2784.5,1218.5 2803.5,1218.5C 2803.5,1320.83 2803.5,1423.17 2803.5,1525.5C 2784.16,1525.67 2764.83,1525.5 2745.5,1525C 2694.33,1455.17 2643.17,1385.33 2592,1315.5C 2591.5,1385.5 2591.33,1455.5 2591.5,1525.5C 2571.83,1525.5 2552.17,1525.5 2532.5,1525.5C 2532.5,1423.17 2532.5,1320.83 2532.5,1218.5 Z"/></g>
<g><path style="opacity:0.986" fill="#3891df" d="M 135.5,1219.5 C 216.167,1219.5 296.833,1219.5 377.5,1219.5C 377.667,1237.5 377.5,1255.5 377,1273.5C 322.833,1338.33 268.667,1403.17 214.5,1468C 270.166,1468.5 325.832,1468.67 381.5,1468.5C 381.5,1487.5 381.5,1506.5 381.5,1525.5C 295.167,1525.5 208.833,1525.5 122.5,1525.5C 122.333,1507.5 122.5,1489.5 123,1471.5C 177.167,1406.67 231.333,1341.83 285.5,1277C 235.501,1276.5 185.501,1276.33 135.5,1276.5C 135.5,1257.5 135.5,1238.5 135.5,1219.5 Z"/></g>
<g><path style="opacity:0.983" fill="#3891df" d="M 1148.5,1219.5 C 1171.84,1219.17 1195.18,1219.5 1218.5,1220.5C 1263.83,1322.17 1309.17,1423.83 1354.5,1525.5C 1332.51,1526.67 1310.51,1526.83 1288.5,1526C 1278.37,1503.57 1268.37,1481.07 1258.5,1458.5C 1207.17,1457.17 1155.83,1457.17 1104.5,1458.5C 1093.96,1481.08 1083.3,1503.58 1072.5,1526C 1051.84,1526.5 1031.17,1526.67 1010.5,1526.5C 1056.22,1424.06 1102.22,1321.73 1148.5,1219.5 Z M 1183.5,1279.5 C 1184.75,1279.58 1185.58,1280.24 1186,1281.5C 1201.83,1319.17 1217.67,1356.83 1233.5,1394.5C 1200.17,1395.67 1166.84,1395.83 1133.5,1395C 1150.85,1356.78 1167.52,1318.28 1183.5,1279.5 Z"/></g>
<g><path style="opacity:0.983" fill="#3891df" d="M 1941.5,1219.5 C 1964.84,1219.17 1988.18,1219.5 2011.5,1220.5C 2056.83,1322.17 2102.17,1423.83 2147.5,1525.5C 2125.51,1526.67 2103.51,1526.83 2081.5,1526C 2071.37,1503.57 2061.37,1481.07 2051.5,1458.5C 2000.17,1457.17 1948.83,1457.17 1897.5,1458.5C 1886.96,1481.08 1876.3,1503.58 1865.5,1526C 1844.84,1526.5 1824.17,1526.67 1803.5,1526.5C 1849.22,1424.06 1895.22,1321.73 1941.5,1219.5 Z M 1976.5,1279.5 C 1977.75,1279.58 1978.58,1280.24 1979,1281.5C 1994.83,1319.17 2010.67,1356.83 2026.5,1394.5C 1993.17,1395.67 1959.84,1395.83 1926.5,1395C 1943.85,1356.78 1960.52,1318.28 1976.5,1279.5 Z"/></g>
<g><path style="opacity:0.986" fill="#3891df" d="M 2198.5,1219.5 C 2221.17,1219.5 2243.83,1219.5 2266.5,1219.5C 2266.33,1287.83 2266.5,1356.17 2267,1424.5C 2268.79,1452.28 2283.29,1468.78 2310.5,1474C 2330.12,1477.4 2349.12,1475.4 2367.5,1468C 2382.19,1457.79 2390.03,1443.63 2391,1425.5C 2391.5,1356.83 2391.67,1288.17 2391.5,1219.5C 2414.17,1219.5 2436.83,1219.5 2459.5,1219.5C 2459.67,1289.5 2459.5,1359.5 2459,1429.5C 2453.06,1483.77 2423.56,1516.93 2370.5,1529C 2342.5,1533.67 2314.5,1533.67 2286.5,1529C 2233.24,1517.07 2204.07,1483.9 2199,1429.5C 2198.5,1359.5 2198.33,1289.5 2198.5,1219.5 Z"/></g>
<g><path style="opacity:0.986" fill="#3891df" d="M 2877.5,1219.5 C 2927.83,1219.33 2978.17,1219.5 3028.5,1220C 3094.23,1229.06 3133.39,1266.22 3146,1331.5C 3153.2,1373.45 3148.86,1414.12 3133,1453.5C 3111.68,1496.12 3077.18,1519.95 3029.5,1525C 2978.83,1525.5 2928.17,1525.67 2877.5,1525.5C 2877.5,1423.5 2877.5,1321.5 2877.5,1219.5 Z M 2945.5,1276.5 C 2968.2,1276.09 2990.87,1276.59 3013.5,1278C 3050.28,1284.12 3071.78,1305.62 3078,1342.5C 3081.41,1362.59 3081.74,1382.59 3079,1402.5C 3073.19,1439.97 3051.69,1461.81 3014.5,1468C 2991.5,1468.5 2968.5,1468.67 2945.5,1468.5C 2945.5,1404.5 2945.5,1340.5 2945.5,1276.5 Z"/></g>
<g><path style="opacity:0.989" fill="#3891df" d="M 3215.5,1219.5 C 3267.83,1219.33 3320.17,1219.5 3372.5,1220C 3422.07,1225.5 3451.24,1252.66 3460,1301.5C 3464.84,1336.68 3455.01,1366.85 3430.5,1392C 3418.94,1401.45 3405.94,1408.28 3391.5,1412.5C 3419.95,1449.91 3448.29,1487.41 3476.5,1525C 3448.5,1525.67 3420.5,1525.67 3392.5,1525C 3366.83,1488.67 3341.17,1452.33 3315.5,1416C 3304.84,1415.5 3294.17,1415.33 3283.5,1415.5C 3283.5,1452.17 3283.5,1488.83 3283.5,1525.5C 3260.83,1525.5 3238.17,1525.5 3215.5,1525.5C 3215.5,1423.5 3215.5,1321.5 3215.5,1219.5 Z M 3283.5,1272.5 C 3306.5,1272.33 3329.5,1272.5 3352.5,1273C 3379.72,1275.38 3393.72,1290.22 3394.5,1317.5C 3394.76,1341.18 3383.43,1355.68 3360.5,1361C 3355.2,1361.93 3349.87,1362.6 3344.5,1363C 3324.17,1363.5 3303.84,1363.67 3283.5,1363.5C 3283.5,1333.17 3283.5,1302.83 3283.5,1272.5 Z"/></g>
<g><path style="opacity:0.984" fill="#3891df" d="M 3497.5,1219.5 C 3523.17,1219.33 3548.84,1219.5 3574.5,1220C 3598,1259.5 3621.5,1299 3645,1338.5C 3668.42,1299.33 3691.59,1260 3714.5,1220.5C 3740.16,1219.33 3765.83,1219.17 3791.5,1220C 3753.54,1282.75 3715.71,1345.58 3678,1408.5C 3677.5,1447.5 3677.33,1486.5 3677.5,1525.5C 3654.83,1525.5 3632.17,1525.5 3609.5,1525.5C 3609.67,1485.5 3609.5,1445.5 3609,1405.5C 3571.56,1343.61 3534.39,1281.61 3497.5,1219.5 Z"/></g>
</svg>
