<?xml version="1.0" encoding="UTF-8"?>
<!DOCTYPE svg PUBLIC "-//W3C//DTD SVG 1.1//EN" "http://www.w3.org/Graphics/SVG/1.1/DTD/svg11.dtd">
<svg xmlns="http://www.w3.org/2000/svg" version="1.1" width="6615px" height="1137px" style="shape-rendering:geometricPrecision; text-rendering:geometricPrecision; image-rendering:optimizeQuality; fill-rule:evenodd; clip-rule:evenodd" xmlns:xlink="http://www.w3.org/1999/xlink">
<g><path style="opacity:0.999" fill="#fefefe" d="M 230.5,1.5 C 458.52,1.00891 686.52,1.50891 914.5,3C 999.301,15.8607 1062.8,59.3607 1105,133.5C 1121.98,165.757 1131.65,200.09 1134,236.5C 1134.67,457.5 1134.67,678.5 1134,899.5C 1125.77,989.185 1083.27,1057.02 1006.5,1103C 975.07,1120.59 941.403,1130.92 905.5,1134C 680.5,1134.67 455.5,1134.67 230.5,1134C 154.338,1126.02 93.5042,1091.52 48,1030.5C 21.4229,993.115 6.08957,951.448 2,905.5C 1.33333,680.5 1.33333,455.5 2,230.5C 11.2103,147.369 50.7103,83.2026 120.5,38C 154.551,17.7051 191.218,5.53846 230.5,1.5 Z"/></g>
<g><path style="opacity:1" fill="#d0ebf9" d="M 694.5,327.5 C 783.668,326.168 873.001,326.168 962.5,327.5C 962.376,328.107 962.043,328.44 961.5,328.5C 936.339,327.502 911.005,327.169 885.5,327.5C 869.167,327.5 852.833,327.5 836.5,327.5C 823.5,327.5 810.5,327.5 797.5,327.5C 789.167,327.5 780.833,327.5 772.5,327.5C 766.5,327.5 760.5,327.5 754.5,327.5C 741.167,327.5 727.833,327.5 714.5,327.5C 707.833,327.5 701.167,327.5 694.5,327.5 Z"/></g>
<g><path style="opacity:1" fill="#505ade" d="M 176.5,327.5 C 180.039,345.194 183.706,362.861 187.5,380.5C 163.539,353.438 133.372,338.771 97,336.5C 94.7091,333.165 95.2091,330.332 98.5,328C 124.498,327.5 150.498,327.333 176.5,327.5 Z"/></g>
<g><path style="opacity:1" fill="#4e5fe0" d="M 176.5,327.5 C 180.167,327.5 183.833,327.5 187.5,327.5C 221.98,479.759 256.314,632.092 290.5,784.5C 290.457,785.416 290.124,786.083 289.5,786.5C 284.657,784.582 280.323,781.916 276.5,778.5C 253.423,671.132 229.423,563.798 204.5,456.5C 208.356,428.827 202.689,403.494 187.5,380.5C 183.706,362.861 180.039,345.194 176.5,327.5 Z"/></g>
<g><path style="opacity:1" fill="#4d61e1" d="M 187.5,327.5 C 193.167,327.5 198.833,327.5 204.5,327.5C 239.341,483.199 274.341,638.865 309.5,794.5C 309.043,795.298 308.376,795.631 307.5,795.5C 300.903,793.535 294.903,790.535 289.5,786.5C 290.124,786.083 290.457,785.416 290.5,784.5C 256.314,632.092 221.98,479.759 187.5,327.5 Z"/></g>
<g><path style="opacity:1" fill="#4c67e3" d="M 204.5,327.5 C 215.5,327.5 226.5,327.5 237.5,327.5C 273.167,486.835 308.834,646.168 344.5,805.5C 343.167,805.5 341.833,805.5 340.5,805.5C 328.925,803.75 317.925,800.417 307.5,795.5C 308.376,795.631 309.043,795.298 309.5,794.5C 274.341,638.865 239.341,483.199 204.5,327.5 Z"/></g>
<g><path style="opacity:1" fill="#4b6de5" d="M 237.5,327.5 C 246.833,327.5 256.167,327.5 265.5,327.5C 301.294,485.805 336.961,644.138 372.5,802.5C 369.796,804.171 367.129,805.837 364.5,807.5C 356.264,807.882 348.264,807.215 340.5,805.5C 341.833,805.5 343.167,805.5 344.5,805.5C 308.834,646.168 273.167,486.835 237.5,327.5 Z"/></g>
<g><path style="opacity:1" fill="#4a72e7" d="M 265.5,327.5 C 271.167,327.5 276.833,327.5 282.5,327.5C 317.01,483.062 352.01,638.395 387.5,793.5C 383.292,797.685 378.292,800.685 372.5,802.5C 336.961,644.138 301.294,485.805 265.5,327.5 Z"/></g>
<g><path style="opacity:1" fill="#4975e8" d="M 282.5,327.5 C 286.5,327.5 290.5,327.5 294.5,327.5C 328.087,480.447 362.42,633.114 397.5,785.5C 394.905,789.126 391.572,791.792 387.5,793.5C 352.01,638.395 317.01,483.062 282.5,327.5 Z"/></g>
<g><path style="opacity:1" fill="#4979e9" d="M 294.5,327.5 C 303.833,327.5 313.167,327.5 322.5,327.5C 354.455,471.278 386.788,614.945 419.5,758.5C 414.297,769.24 406.964,778.24 397.5,785.5C 362.42,633.114 328.087,480.447 294.5,327.5 Z"/></g>
<g><path style="opacity:1" fill="#487fec" d="M 322.5,327.5 C 333.5,327.5 344.5,327.5 355.5,327.5C 382.909,450.876 410.576,574.21 438.5,697.5C 438.747,698.713 439.414,699.38 440.5,699.5C 437.761,713.454 433.928,727.121 429,740.5C 426.583,747.005 423.417,753.005 419.5,758.5C 386.788,614.945 354.455,471.278 322.5,327.5 Z"/></g>
<g><path style="opacity:1" fill="#4786ee" d="M 355.5,327.5 C 364.833,327.5 374.167,327.5 383.5,327.5C 404.264,420.334 425.264,513.001 446.5,605.5C 446.982,637.009 444.982,668.342 440.5,699.5C 439.414,699.38 438.747,698.713 438.5,697.5C 410.576,574.21 382.909,450.876 355.5,327.5 Z"/></g>
<g><path style="opacity:1" fill="#468bf0" d="M 383.5,327.5 C 392.833,327.5 402.167,327.5 411.5,327.5C 423.182,378.255 434.848,428.922 446.5,479.5C 446.5,521.5 446.5,563.5 446.5,605.5C 425.264,513.001 404.264,420.334 383.5,327.5 Z"/></g>
<g><path style="opacity:1" fill="#4593f3" d="M 411.5,327.5 C 436.528,327.091 461.528,327.591 486.5,329C 504.26,332.626 520.26,339.793 534.5,350.5C 522.739,352.88 512.072,357.713 502.5,365C 479.339,383.782 463.506,407.615 455,436.5C 451.522,450.7 448.689,465.033 446.5,479.5C 434.848,428.922 423.182,378.255 411.5,327.5 Z"/></g>
<g><path style="opacity:1" fill="#3a99e1" d="M 694.5,327.5 C 701.167,327.5 707.833,327.5 714.5,327.5C 757.236,452.709 799.57,578.042 841.5,703.5C 836.18,722.14 827.68,739.14 816,754.5C 814.629,756.041 813.129,757.375 811.5,758.5C 764.011,616.2 716.011,474.033 667.5,332C 667.164,330.97 666.497,330.47 665.5,330.5C 674.894,328.26 684.56,327.26 694.5,327.5 Z"/></g>
<g><path style="opacity:1" fill="#3c9fe3" d="M 714.5,327.5 C 727.833,327.5 741.167,327.5 754.5,327.5C 785.265,419.798 816.599,511.798 848.5,603.5C 848.667,626.502 848.5,649.502 848,672.5C 847.13,683.232 844.963,693.565 841.5,703.5C 799.57,578.042 757.236,452.709 714.5,327.5 Z"/></g>
<g><path style="opacity:1" fill="#3ea3e5" d="M 754.5,327.5 C 760.5,327.5 766.5,327.5 772.5,327.5C 797.658,401.644 822.992,475.644 848.5,549.5C 848.5,567.5 848.5,585.5 848.5,603.5C 816.599,511.798 785.265,419.798 754.5,327.5 Z"/></g>
<g><path style="opacity:1" fill="#3fa6e6" d="M 772.5,327.5 C 780.833,327.5 789.167,327.5 797.5,327.5C 814.397,379.86 832.064,431.86 850.5,483.5C 848.664,505.438 847.998,527.438 848.5,549.5C 822.992,475.644 797.658,401.644 772.5,327.5 Z"/></g>
<g><path style="opacity:1" fill="#41abe7" d="M 797.5,327.5 C 810.5,327.5 823.5,327.5 836.5,327.5C 847.768,359.303 858.434,391.303 868.5,423.5C 859.841,442.801 853.841,462.801 850.5,483.5C 832.064,431.86 814.397,379.86 797.5,327.5 Z"/></g>
<g><path style="opacity:1" fill="#43b1e9" d="M 836.5,327.5 C 852.833,327.5 869.167,327.5 885.5,327.5C 891.104,342.978 896.104,358.645 900.5,374.5C 894.499,382.006 888.666,389.673 883,397.5C 877.885,406.068 873.052,414.734 868.5,423.5C 858.434,391.303 847.768,359.303 836.5,327.5 Z"/></g>
<g><path style="opacity:1" fill="#46b9ec" d="M 885.5,327.5 C 911.005,327.169 936.339,327.502 961.5,328.5C 938.304,340.028 917.971,355.362 900.5,374.5C 896.104,358.645 891.104,342.978 885.5,327.5 Z"/></g>
<g><path style="opacity:1" fill="#50c4ef" d="M 930.5,650.5 C 930.5,636.833 930.5,623.167 930.5,609.5C 930.5,588.167 930.5,566.833 930.5,545.5C 930.667,525.831 930.5,506.164 930,486.5C 916.294,468.398 902.128,450.732 887.5,433.5C 904.99,390.174 934.99,358.674 977.5,339C 996.762,331.154 1016.76,327.487 1037.5,328C 1041.57,331.745 1041.23,335.078 1036.5,338C 1002.5,339.421 973.996,352.588 951,377.5C 941.135,390.234 934.801,404.567 932,420.5C 931.833,497.334 931.333,574.001 930.5,650.5 Z"/></g>
<g><path style="opacity:1" fill="#3994e0" d="M 665.5,330.5 C 666.497,330.47 667.164,330.97 667.5,332C 716.011,474.033 764.011,616.2 811.5,758.5C 807.167,764.833 801.833,770.167 795.5,774.5C 746.37,627.776 697.037,481.11 647.5,334.5C 653.187,332.248 659.187,330.914 665.5,330.5 Z"/></g>
<g><path style="opacity:1" fill="#3890df" d="M 647.5,334.5 C 697.037,481.11 746.37,627.776 795.5,774.5C 790.397,779.225 784.731,783.225 778.5,786.5C 728.5,638.167 678.5,489.833 628.5,341.5C 634.45,338.368 640.784,336.035 647.5,334.5 Z"/></g>
<g><path style="opacity:1" fill="#368cdd" d="M 628.5,341.5 C 678.5,489.833 728.5,638.167 778.5,786.5C 767.434,792.865 755.767,797.865 743.5,801.5C 694.678,655.2 645.344,509.033 595.5,363C 595.164,361.97 594.497,361.47 593.5,361.5C 598.91,356.616 604.91,352.45 611.5,349C 616.953,345.938 622.62,343.438 628.5,341.5 Z"/></g>
<g><path style="opacity:1" fill="#284191" d="M 534.5,350.5 C 543.253,356.331 549.92,363.997 554.5,373.5C 527.555,397.374 510.389,427.041 503,462.5C 501.69,531.807 501.023,601.14 501,670.5C 492.912,728.22 462.746,769.72 410.5,795C 395.68,801.038 380.347,805.205 364.5,807.5C 367.129,805.837 369.796,804.171 372.5,802.5C 378.292,800.685 383.292,797.685 387.5,793.5C 391.572,791.792 394.905,789.126 397.5,785.5C 406.964,778.24 414.297,769.24 419.5,758.5C 423.417,753.005 426.583,747.005 429,740.5C 433.928,727.121 437.761,713.454 440.5,699.5C 444.982,668.342 446.982,637.009 446.5,605.5C 446.5,563.5 446.5,521.5 446.5,479.5C 448.689,465.033 451.522,450.7 455,436.5C 463.506,407.615 479.339,383.782 502.5,365C 512.072,357.713 522.739,352.88 534.5,350.5 Z"/></g>
<g><path style="opacity:0.989" fill="#fefffe" d="M 1898.5,358.5 C 1999.83,358.5 2101.17,358.5 2202.5,358.5C 2202.5,384.167 2202.5,409.833 2202.5,435.5C 2130.83,435.5 2059.17,435.5 1987.5,435.5C 1987.5,466.5 1987.5,497.5 1987.5,528.5C 2050.83,528.5 2114.17,528.5 2177.5,528.5C 2177.5,555.5 2177.5,582.5 2177.5,609.5C 2114.17,609.5 2050.83,609.5 1987.5,609.5C 1987.5,639.167 1987.5,668.833 1987.5,698.5C 2065.83,698.5 2144.17,698.5 2222.5,698.5C 2222.5,724.5 2222.5,750.5 2222.5,776.5C 2114.5,776.5 2006.5,776.5 1898.5,776.5C 1898.5,637.167 1898.5,497.833 1898.5,358.5 Z"/></g>
<g><path style="opacity:0.989" fill="#fefffe" d="M 2303.5,358.5 C 2404.83,358.5 2506.17,358.5 2607.5,358.5C 2607.5,384.167 2607.5,409.833 2607.5,435.5C 2535.83,435.5 2464.17,435.5 2392.5,435.5C 2392.5,466.5 2392.5,497.5 2392.5,528.5C 2455.83,528.5 2519.17,528.5 2582.5,528.5C 2582.5,555.5 2582.5,582.5 2582.5,609.5C 2519.17,609.5 2455.83,609.5 2392.5,609.5C 2392.5,639.167 2392.5,668.833 2392.5,698.5C 2470.83,698.5 2549.17,698.5 2627.5,698.5C 2627.5,724.5 2627.5,750.5 2627.5,776.5C 2519.5,776.5 2411.5,776.5 2303.5,776.5C 2303.5,637.167 2303.5,497.833 2303.5,358.5 Z"/></g>
<g><path style="opacity:0.995" fill="#fefffe" d="M 3414.5,358.5 C 3444.5,358.5 3474.5,358.5 3504.5,358.5C 3504.5,470.833 3504.5,583.167 3504.5,695.5C 3575.5,695.5 3646.5,695.5 3717.5,695.5C 3717.5,721.167 3717.5,746.833 3717.5,772.5C 3616.5,772.5 3515.5,772.5 3414.5,772.5C 3414.5,634.5 3414.5,496.5 3414.5,358.5 Z"/></g>
<g><path style="opacity:0.991" fill="#fefffe" d="M 4746.5,359.5 C 4781.84,359.167 4817.17,359.5 4852.5,360.5C 4913.47,445.973 4974.64,531.306 5036,616.5C 5036.5,530.834 5036.67,445.167 5036.5,359.5C 5062.5,359.5 5088.5,359.5 5114.5,359.5C 5114.5,498.167 5114.5,636.833 5114.5,775.5C 5088.16,775.667 5061.83,775.5 5035.5,775C 4965.63,680.767 4896.13,586.267 4827,491.5C 4826.5,586.166 4826.33,680.833 4826.5,775.5C 4799.83,775.5 4773.17,775.5 4746.5,775.5C 4746.5,636.833 4746.5,498.167 4746.5,359.5 Z"/></g>
<g><path style="opacity:0.99" fill="#fefffe" d="M 5674.5,359.5 C 5737.5,359.333 5800.5,359.5 5863.5,360C 5901.08,358.864 5934.75,369.531 5964.5,392C 5993.6,419.437 6007.6,453.27 6006.5,493.5C 6007.34,541.996 5988,579.829 5948.5,607C 5936.91,613.249 5924.91,618.415 5912.5,622.5C 5950.83,673.167 5989.17,723.833 6027.5,774.5C 5989.84,775.667 5952.17,775.833 5914.5,775C 5880.36,726.028 5846.03,677.195 5811.5,628.5C 5796.51,627.501 5781.51,627.167 5766.5,627.5C 5766.5,676.833 5766.5,726.167 5766.5,775.5C 5735.83,775.5 5705.17,775.5 5674.5,775.5C 5674.5,636.833 5674.5,498.167 5674.5,359.5 Z M 5766.5,431.5 C 5792.17,431.333 5817.84,431.5 5843.5,432C 5857.15,431.95 5870.48,433.95 5883.5,438C 5900.92,445.092 5911.42,457.925 5915,476.5C 5918.64,495.004 5916.31,512.671 5908,529.5C 5902.08,538.223 5894.25,544.723 5884.5,549C 5876.07,552.019 5867.41,554.019 5858.5,555C 5827.85,556.315 5797.18,556.815 5766.5,556.5C 5766.5,514.833 5766.5,473.167 5766.5,431.5 Z"/></g>
<g><path style="opacity:0.987" fill="#fefffe" d="M 1493.5,360.5 C 1602.83,360.5 1712.17,360.5 1821.5,360.5C 1821.67,384.836 1821.5,409.169 1821,433.5C 1747.54,521.959 1673.71,610.126 1599.5,698C 1675.5,698.5 1751.5,698.667 1827.5,698.5C 1827.5,724.5 1827.5,750.5 1827.5,776.5C 1710.5,776.5 1593.5,776.5 1476.5,776.5C 1476.02,751.077 1476.52,725.744 1478,700.5C 1551.35,613.313 1624.52,525.98 1697.5,438.5C 1629.5,437.5 1561.5,437.167 1493.5,437.5C 1493.5,411.833 1493.5,386.167 1493.5,360.5 Z"/></g>
<g><path style="opacity:0.987" fill="#fefffe" d="M 2868.5,360.5 C 2899.84,360.167 2931.17,360.5 2962.5,361.5C 3024.04,499.408 3085.7,637.241 3147.5,775C 3117.5,775.667 3087.5,775.667 3057.5,775C 3044.04,745.241 3030.7,715.408 3017.5,685.5C 2947.5,684.167 2877.5,684.167 2807.5,685.5C 2793.5,715.167 2779.5,744.833 2765.5,774.5C 2737.17,775.833 2708.83,775.833 2680.5,774.5C 2743.37,636.555 2806.03,498.555 2868.5,360.5 Z M 2916.5,440.5 C 2938.81,493.066 2961.14,545.733 2983.5,598.5C 2938.17,599.667 2892.84,599.833 2847.5,599C 2870.41,546.113 2893.41,493.28 2916.5,440.5 Z"/></g>
<g><path style="opacity:0.987" fill="#fefffe" d="M 3945.5,360.5 C 3976.84,360.167 4008.17,360.5 4039.5,361.5C 4101.04,499.408 4162.7,637.241 4224.5,775C 4194.5,775.667 4164.5,775.667 4134.5,775C 4121.04,745.241 4107.7,715.408 4094.5,685.5C 4024.5,684.167 3954.5,684.167 3884.5,685.5C 3870.5,715.167 3856.5,744.833 3842.5,774.5C 3814.17,775.833 3785.83,775.833 3757.5,774.5C 3820.37,636.555 3883.03,498.555 3945.5,360.5 Z M 3993.5,440.5 C 4015.81,493.066 4038.14,545.733 4060.5,598.5C 4015.17,599.667 3969.84,599.833 3924.5,599C 3947.41,546.113 3970.41,493.28 3993.5,440.5 Z"/></g>
<g><path style="opacity:0.99" fill="#fefffe" d="M 4293.5,360.5 C 4324.17,360.5 4354.83,360.5 4385.5,360.5C 4385.33,452.501 4385.5,544.501 4386,636.5C 4388.77,677.269 4410.27,700.769 4450.5,707C 4472.97,709.961 4494.97,707.961 4516.5,701C 4535.63,692.532 4547.46,678.032 4552,657.5C 4554.73,644.986 4556.06,632.319 4556,619.5C 4556.5,533.167 4556.67,446.834 4556.5,360.5C 4587.17,360.5 4617.83,360.5 4648.5,360.5C 4648.67,450.501 4648.5,540.501 4648,630.5C 4643.17,721.355 4595.67,772.522 4505.5,784C 4464.03,789.253 4423.36,785.253 4383.5,772C 4336.54,753.261 4308.04,719.094 4298,669.5C 4296.2,660.57 4294.87,651.57 4294,642.5C 4293.5,548.501 4293.33,454.501 4293.5,360.5 Z"/></g>
<g><path style="opacity:0.989" fill="#fefffe" d="M 5214.5,360.5 C 5281.5,360.333 5348.5,360.5 5415.5,361C 5507.04,371.87 5561.21,422.704 5578,513.5C 5587.32,568.35 5581.98,621.683 5562,673.5C 5533.28,735.308 5484.78,769.141 5416.5,775C 5349.18,776.418 5281.84,776.918 5214.5,776.5C 5214.5,637.833 5214.5,499.167 5214.5,360.5 Z M 5306.5,437.5 C 5331.17,437.333 5355.84,437.5 5380.5,438C 5442.18,440.687 5477.68,472.52 5487,533.5C 5490.9,558.98 5490.9,584.314 5487,609.5C 5482.75,638.174 5469.59,661.674 5447.5,680C 5434.44,688.8 5420.1,694.467 5404.5,697C 5371.86,698.424 5339.19,698.924 5306.5,698.5C 5306.5,611.5 5306.5,524.5 5306.5,437.5 Z"/></g>
<g><path style="opacity:0.988" fill="#fefffe" d="M 6055.5,361.5 C 6090.34,360.17 6125.34,360.17 6160.5,361.5C 6192.33,415.167 6224.17,468.833 6256,522.5C 6288.34,469.163 6320.17,415.497 6351.5,361.5C 6385.83,360.167 6420.17,360.167 6454.5,361.5C 6403.33,446.5 6352.17,531.5 6301,616.5C 6300.5,669.499 6300.33,722.499 6300.5,775.5C 6269.83,775.5 6239.17,775.5 6208.5,775.5C 6208.67,721.499 6208.5,667.499 6208,613.5C 6157.39,529.27 6106.56,445.27 6055.5,361.5 Z"/></g>
<g><path style="opacity:1" fill="#3687db" d="M 593.5,361.5 C 594.497,361.47 595.164,361.97 595.5,363C 645.344,509.033 694.678,655.2 743.5,801.5C 731.386,804.637 719.052,806.804 706.5,808C 635.332,808.832 564.332,808.665 493.5,807.5C 506.5,807.5 519.5,807.5 532.5,807.5C 545.833,807.5 559.167,807.5 572.5,807.5C 586.833,807.5 601.167,807.5 615.5,807.5C 628.5,807.5 641.5,807.5 654.5,807.5C 668.833,807.5 683.167,807.5 697.5,807.5C 699.604,807.799 701.604,807.466 703.5,806.5C 656.727,667.512 609.394,528.845 561.5,390.5C 570.965,379.361 581.632,369.695 593.5,361.5 Z"/></g>
<g><path style="opacity:1" fill="#3483db" d="M 561.5,390.5 C 609.394,528.845 656.727,667.512 703.5,806.5C 701.604,807.466 699.604,807.799 697.5,807.5C 651.007,670.018 604.34,532.685 557.5,395.5C 558.833,393.833 560.167,392.167 561.5,390.5 Z"/></g>
<g><path style="opacity:1" fill="#327fd9" d="M 557.5,395.5 C 604.34,532.685 651.007,670.018 697.5,807.5C 683.167,807.5 668.833,807.5 654.5,807.5C 614.308,687.424 573.808,567.424 533,447.5C 532.623,446.058 531.79,445.058 530.5,444.5C 537.173,426.816 546.173,410.483 557.5,395.5 Z"/></g>
<g><path style="opacity:1" fill="#3079d7" d="M 530.5,444.5 C 531.79,445.058 532.623,446.058 533,447.5C 573.808,567.424 614.308,687.424 654.5,807.5C 641.5,807.5 628.5,807.5 615.5,807.5C 584.206,714.615 552.539,621.948 520.5,529.5C 517.799,500.387 521.133,472.053 530.5,444.5 Z"/></g>
<g><path style="opacity:1" fill="#47beed" d="M 887.5,433.5 C 902.128,450.732 916.294,468.398 930,486.5C 930.5,506.164 930.667,525.831 930.5,545.5C 911.779,522.418 893.279,499.085 875,475.5C 874.617,476.056 874.117,476.389 873.5,476.5C 876.97,461.756 881.637,447.423 887.5,433.5 Z"/></g>
<g><path style="opacity:1" fill="#4f5ade" d="M 204.5,456.5 C 229.423,563.798 253.423,671.132 276.5,778.5C 233.317,747.833 209.483,705.833 205,652.5C 204.5,587.168 204.333,521.834 204.5,456.5 Z"/></g>
<g><path style="opacity:1" fill="#45b9eb" d="M 930.5,545.5 C 930.5,566.833 930.5,588.167 930.5,609.5C 909.167,582.5 887.833,555.5 866.5,528.5C 867.34,510.951 869.674,493.618 873.5,476.5C 874.117,476.389 874.617,476.056 875,475.5C 893.279,499.085 911.779,522.418 930.5,545.5 Z"/></g>
<g><path style="opacity:1" fill="#42b2e9" d="M 866.5,528.5 C 887.833,555.5 909.167,582.5 930.5,609.5C 930.5,623.167 930.5,636.833 930.5,650.5C 930.217,660.446 928.884,670.112 926.5,679.5C 906.927,652.259 886.593,625.593 865.5,599.5C 865.177,575.759 865.511,552.092 866.5,528.5 Z"/></g>
<g><path style="opacity:1" fill="#2e73d5" d="M 520.5,529.5 C 552.539,621.948 584.206,714.615 615.5,807.5C 601.167,807.5 586.833,807.5 572.5,807.5C 556.068,757.535 539.068,707.869 521.5,658.5C 521.752,615.491 521.419,572.491 520.5,529.5 Z"/></g>
<g><path style="opacity:1" fill="#40abe7" d="M 865.5,599.5 C 886.593,625.593 906.927,652.259 926.5,679.5C 923.453,693.651 918.453,706.984 911.5,719.5C 911.649,718.448 911.483,717.448 911,716.5C 895.969,697.312 880.803,678.312 865.5,659.5C 865.5,639.5 865.5,619.5 865.5,599.5 Z"/></g>
<g><path style="opacity:1" fill="#3fa6e5" d="M 865.5,659.5 C 880.803,678.312 895.969,697.312 911,716.5C 911.483,717.448 911.649,718.448 911.5,719.5C 905.545,731.76 897.879,742.76 888.5,752.5C 879.442,739.028 869.442,726.361 858.5,714.5C 863.766,696.601 866.099,678.268 865.5,659.5 Z"/></g>
<g><path style="opacity:1" fill="#2d6ed3" d="M 521.5,658.5 C 539.068,707.869 556.068,757.535 572.5,807.5C 559.167,807.5 545.833,807.5 532.5,807.5C 524.27,780.474 515.27,753.807 505.5,727.5C 516.022,705.744 521.355,682.744 521.5,658.5 Z"/></g>
<g><path style="opacity:1" fill="#3ea0e3" d="M 858.5,714.5 C 869.442,726.361 879.442,739.028 888.5,752.5C 880.695,761.979 871.695,769.979 861.5,776.5C 855.543,767.58 848.877,759.247 841.5,751.5C 849.053,740.059 854.72,727.726 858.5,714.5 Z"/></g>
<g><path style="opacity:1" fill="#2b67d1" d="M 505.5,727.5 C 515.27,753.807 524.27,780.474 532.5,807.5C 519.5,807.5 506.5,807.5 493.5,807.5C 490.5,807.5 487.5,807.5 484.5,807.5C 480.697,796.091 476.697,784.758 472.5,773.5C 485.826,759.84 496.826,744.506 505.5,727.5 Z"/></g>
<g><path style="opacity:1" fill="#3d99e1" d="M 841.5,751.5 C 848.877,759.247 855.543,767.58 861.5,776.5C 841.646,791.631 819.313,801.464 794.5,806C 784.881,807.625 775.215,808.292 765.5,808C 796.713,796.937 822.047,778.104 841.5,751.5 Z"/></g>
<g><path style="opacity:1" fill="#2b61d0" d="M 472.5,773.5 C 476.697,784.758 480.697,796.091 484.5,807.5C 477.833,807.5 471.167,807.5 464.5,807.5C 448.833,806.833 433.167,806.167 417.5,805.5C 432.123,801.574 445.457,795.074 457.5,786C 462.373,781.622 467.373,777.455 472.5,773.5 Z"/></g>
<g><path style="opacity:1" fill="#7092de" d="M 417.5,805.5 C 433.167,806.167 448.833,806.833 464.5,807.5C 447.497,807.667 430.497,807.5 413.5,807C 414.745,806.209 416.078,805.709 417.5,805.5 Z"/></g>
</svg>
